<svg width="512" height="512" viewBox="0 0 512 512" fill="none" xmlns="http://www.w3.org/2000/svg">
    <path d="M109.048 262C100.256 232.571 100.173 227.512 99.4703 218.313L99.4699 218.308C92.5292 127.326 163.319 56 256 56C349.106 56 419.492 128.724 412.524 218.395L412.524 218.399" stroke="currentColor" stroke-width="32" stroke-linecap="round" stroke-linejoin="round"/>
    <path d="M355.895 223.5C351.455 283.254 306.055 332 256.215 332C206.375 332 160.895 283.265 156.534 223.5C152.003 161.339 196.18 115 256.215 115C316.25 115 360.426 162.469 355.895 223.5Z" stroke="currentColor" stroke-width="32" stroke-linecap="round" stroke-linejoin="round"/>
    <path d="M402 465C368.929 411.746 312.163 384 255.998 384C199.834 384 143.067 411.746 110 465" stroke="currentColor" stroke-width="32" stroke-miterlimit="10" stroke-linecap="round"/>
    <path d="M110.215 262L236.215 262" stroke="currentColor" stroke-width="32" stroke-linecap="round"/>
</svg>
